<svg width="48" height="48" viewBox="0 0 48 48" fill="none" xmlns="http://www.w3.org/2000/svg">
<g filter="url(#filter0_d_100_1653)">
<rect x="2" y="1" width="44" height="44" rx="22" fill="black"/>
<path d="M32.8428 28.1447C32.5101 28.9133 32.1163 29.6208 31.66 30.2713C31.0381 31.158 30.5288 31.7719 30.1364 32.1127C29.528 32.6722 28.8762 32.9587 28.1782 32.975C27.6771 32.975 27.0728 32.8324 26.3693 32.5432C25.6636 32.2553 25.015 32.1127 24.422 32.1127C23.8 32.1127 23.133 32.2553 22.4195 32.5432C21.7049 32.8324 21.1293 32.9832 20.6892 32.9981C20.0198 33.0266 19.3526 32.7319 18.6867 32.1127C18.2616 31.742 17.73 31.1064 17.0931 30.2061C16.4098 29.2446 15.848 28.1297 15.4078 26.8587C14.9365 25.4857 14.7002 24.1563 14.7002 22.8692C14.7002 21.3948 15.0188 20.1232 15.6569 19.0576C16.1584 18.2017 16.8256 17.5265 17.6606 17.0308C18.4956 16.5351 19.3979 16.2826 20.3695 16.2664C20.9011 16.2664 21.5983 16.4309 22.4647 16.7541C23.3287 17.0783 23.8834 17.2428 24.1266 17.2428C24.3085 17.2428 24.9247 17.0505 25.9694 16.6671C26.9573 16.3116 27.7911 16.1644 28.4742 16.2224C30.3251 16.3718 31.7157 17.1014 32.6405 18.416C30.9851 19.419 30.1662 20.8238 30.1825 22.626C30.1975 24.0297 30.7067 25.1979 31.7076 26.1254C32.1611 26.5558 32.6676 26.8885 33.2312 27.1248C33.109 27.4793 32.98 27.8188 32.8428 28.1447ZM28.5978 11.4401C28.5978 12.5404 28.1958 13.5677 27.3946 14.5185C26.4277 15.6489 25.2582 16.3021 23.99 16.199C23.9738 16.067 23.9645 15.9281 23.9645 15.7821C23.9645 14.7259 24.4243 13.5955 25.2408 12.6713C25.6485 12.2033 26.167 11.8142 26.7957 11.5038C27.4231 11.1981 28.0166 11.029 28.5747 11C28.591 11.1471 28.5978 11.2942 28.5978 11.4401V11.4401Z" fill="white"/>
</g>
<defs>
<filter id="filter0_d_100_1653" x="0" y="0" width="48" height="48" filterUnits="userSpaceOnUse" color-interpolation-filters="sRGB">
<feFlood flood-opacity="0" result="BackgroundImageFix"/>
<feColorMatrix in="SourceAlpha" type="matrix" values="0 0 0 0 0 0 0 0 0 0 0 0 0 0 0 0 0 0 127 0" result="hardAlpha"/>
<feOffset dy="1"/>
<feGaussianBlur stdDeviation="1"/>
<feColorMatrix type="matrix" values="0 0 0 0 0.0627451 0 0 0 0 0.0941176 0 0 0 0 0.156863 0 0 0 0.05 0"/>
<feBlend mode="normal" in2="BackgroundImageFix" result="effect1_dropShadow_100_1653"/>
<feBlend mode="normal" in="SourceGraphic" in2="effect1_dropShadow_100_1653" result="shape"/>
</filter>
</defs>
</svg>
