<svg width="17" height="17" viewBox="0 0 17 17" fill="none" xmlns="http://www.w3.org/2000/svg">
<path fill-rule="evenodd" clip-rule="evenodd" d="M5.43799 0.145874H11.438C14.199 0.145874 16.438 2.49343 16.438 5.38829V11.6792C16.438 14.574 14.199 16.9216 11.438 16.9216H5.43799C2.67699 16.9216 0.437988 14.574 0.437988 11.6792V5.38829C0.437988 2.49343 2.67699 0.145874 5.43799 0.145874ZM11.4376 15.3489C13.3676 15.3489 14.9376 13.7028 14.9376 11.6793V5.38836C14.9376 3.36479 13.3676 1.71867 11.4376 1.71867H5.43764C3.50764 1.71867 1.93764 3.36479 1.93764 5.38836V11.6793C1.93764 13.7028 3.50764 15.3489 5.43764 15.3489H11.4376ZM4.43797 8.53378C4.43797 6.21768 6.22897 4.33984 8.43797 4.33984C10.647 4.33984 12.438 6.21768 12.438 8.53378C12.438 10.8499 10.647 12.7277 8.43797 12.7277C6.22897 12.7277 4.43797 10.8499 4.43797 8.53378ZM5.93771 8.53385C5.93771 9.97866 7.05971 11.1551 8.43771 11.1551C9.81571 11.1551 10.9377 9.97866 10.9377 8.53385C10.9377 7.08799 9.81571 5.91264 8.43771 5.91264C7.05971 5.91264 5.93771 7.08799 5.93771 8.53385ZM13.271 4.02542C13.271 4.33406 13.0323 4.58426 12.738 4.58426C12.4436 4.58426 12.205 4.33406 12.205 4.02542C12.205 3.71678 12.4436 3.46658 12.738 3.46658C13.0323 3.46658 13.271 3.71678 13.271 4.02542Z" fill="black"/>
</svg>
