<svg width="17" height="17" viewBox="0 0 17 17" fill="none" xmlns="http://www.w3.org/2000/svg">
<path fill-rule="evenodd" clip-rule="evenodd" d="M8.5 17C3.80552 17 0 13.1944 0 8.5C0 3.806 3.80552 0 8.5 0C13.1945 0 17 3.80557 17 8.5C17 13.194 13.1945 17 8.5 17ZM14.1613 8.49957C14.1527 8.26058 14.0749 8.02885 13.9372 7.8326C13.7995 7.63679 13.6084 7.48458 13.3865 7.3948C13.165 7.30501 12.9217 7.28107 12.6865 7.32639C12.4513 7.37171 12.2341 7.48373 12.0618 7.64962C11.0946 6.99248 9.95807 6.6295 8.78905 6.60427L9.34149 3.95264L11.1604 4.3353C11.1818 4.53624 11.2746 4.72308 11.4217 4.8616C11.5684 5.00055 11.7599 5.08264 11.9622 5.0929C12.164 5.10316 12.3632 5.0416 12.5236 4.91804C12.6839 4.7949 12.7951 4.61876 12.8374 4.42123C12.8793 4.22371 12.8498 4.01763 12.7536 3.83934C12.6574 3.66191 12.5009 3.52382 12.3124 3.45113C12.1238 3.37802 11.9151 3.37503 11.7249 3.44173C11.5342 3.50885 11.3734 3.64139 11.2716 3.81626L9.18927 3.39983C9.15506 3.39256 9.12 3.39171 9.08537 3.39769C9.05116 3.4041 9.01866 3.41693 8.98916 3.43574C8.96008 3.45455 8.93443 3.47935 8.91476 3.50843C8.89509 3.53707 8.88141 3.56956 8.87414 3.60334L8.24516 6.55254C7.06203 6.57049 5.90968 6.93391 4.93008 7.59831C4.79881 7.47475 4.64274 7.38154 4.47213 7.32468C4.3011 7.26782 4.12023 7.24901 3.9415 7.26867C3.76276 7.28877 3.59045 7.34734 3.43652 7.44055C3.28258 7.53418 3.15089 7.65945 3.0504 7.80866C2.94992 7.95787 2.88322 8.12718 2.85457 8.30461C2.82592 8.48204 2.83661 8.66418 2.88493 8.83733C2.93325 9.01049 3.01919 9.17124 3.13635 9.30806C3.25308 9.44487 3.39803 9.55475 3.5618 9.62957C3.55239 9.75441 3.55239 9.87926 3.5618 10.0037C3.5618 11.9075 5.78055 13.4544 8.51753 13.4544C11.2545 13.4544 13.4733 11.9075 13.4733 10.0037C13.4827 9.87926 13.4827 9.75441 13.4733 9.62957C13.6832 9.52568 13.8589 9.36407 13.9808 9.16398C14.1027 8.96431 14.1651 8.73344 14.1617 8.49914L14.1613 8.49957ZM5.66125 9.34953C5.66125 9.1815 5.71085 9.0169 5.80407 8.87752C5.89771 8.73771 6.03026 8.62869 6.1859 8.56456C6.34111 8.50043 6.51215 8.48333 6.6772 8.51625C6.84182 8.54917 6.99318 8.62997 7.11205 8.74883C7.23092 8.86769 7.31174 9.01947 7.34466 9.18407C7.37758 9.34867 7.36091 9.51969 7.29634 9.67532C7.23221 9.83052 7.12274 9.96306 6.98292 10.0567C6.8431 10.1503 6.67891 10.1999 6.51087 10.1999C6.39927 10.1999 6.28895 10.1781 6.1859 10.1354C6.08285 10.0922 5.98878 10.0302 5.91011 9.95108C5.831 9.87199 5.76858 9.77878 5.72582 9.67532C5.68306 9.57228 5.66125 9.46155 5.66125 9.34996V9.34953ZM10.5999 11.6869C9.99698 12.1414 9.25469 12.3727 8.50043 12.3411C7.74574 12.3727 7.00387 12.1414 6.40055 11.6869C6.36463 11.6429 6.34582 11.5869 6.34881 11.53C6.3518 11.4731 6.37532 11.4193 6.41594 11.3791C6.45614 11.3385 6.51001 11.3149 6.56688 11.3124C6.62375 11.3094 6.67976 11.3278 6.7238 11.3641C7.23477 11.7391 7.85862 11.928 8.49188 11.8994C9.12599 11.9336 9.7524 11.751 10.2685 11.3808C10.3134 11.3368 10.3741 11.3124 10.437 11.3132C10.4682 11.3137 10.499 11.3205 10.5276 11.3325C10.5563 11.3449 10.5823 11.3628 10.6042 11.3846C10.626 11.4069 10.6431 11.433 10.6546 11.4625C10.6662 11.4915 10.6721 11.5223 10.6717 11.5535C10.6713 11.5847 10.6644 11.6155 10.6525 11.6442C10.6401 11.6732 10.6221 11.6989 10.6003 11.7207V11.6865L10.5999 11.6869ZM10.4468 10.2337C10.2783 10.2337 10.1141 10.1841 9.97475 10.0905C9.83493 9.99683 9.72589 9.86429 9.66133 9.70867C9.59719 9.55347 9.58051 9.38245 9.61301 9.21785C9.64593 9.05281 9.72675 8.90146 9.84562 8.78261C9.96449 8.66375 10.1159 8.58294 10.2805 8.55002C10.4455 8.5171 10.6166 8.53378 10.7718 8.59834C10.9274 8.66289 11.06 8.77192 11.1536 8.91172C11.2468 9.05153 11.2968 9.21614 11.2968 9.38373C11.3016 9.49874 11.2823 9.61375 11.2413 9.72149C11.2002 9.82923 11.1374 9.92757 11.057 10.0101C10.9766 10.093 10.8804 10.1584 10.7739 10.2025C10.6674 10.2469 10.5533 10.2692 10.4378 10.2679L10.4464 10.2337H10.4468Z" fill="#E95423"/>
</svg>
