<svg width="17" height="17" viewBox="0 0 17 17" fill="none" xmlns="http://www.w3.org/2000/svg">
<path fill-rule="evenodd" clip-rule="evenodd" d="M13.8862 2.89395C14.8452 2.95056 15.3162 3.09945 15.7502 3.90888C16.2022 4.71726 16.4302 6.10964 16.4302 8.56204V8.56519V8.57043C16.4302 11.0113 16.2022 12.4142 15.7512 13.2142C15.3172 14.0236 14.8462 14.1704 13.8872 14.2385C12.9282 14.2962 10.5192 14.3308 8.43218 14.3308C6.34118 14.3308 3.93118 14.2962 2.97318 14.2375C2.01618 14.1693 1.54518 14.0225 1.10718 13.2131C0.660176 12.4131 0.430176 11.0103 0.430176 8.56938V8.56729V8.56414V8.561C0.430176 6.10964 0.660176 4.71726 1.10718 3.90888C1.54518 3.0984 2.01718 2.95056 2.97418 2.8929C3.93118 2.82579 6.34118 2.79749 8.43218 2.79749C10.5192 2.79749 12.9282 2.82579 13.8862 2.89395ZM11.4302 8.56414L6.43017 5.41869V11.7096L11.4302 8.56414Z" fill="black"/>
</svg>
