<svg width="44" height="44" viewBox="0 0 44 44" fill="none" xmlns="http://www.w3.org/2000/svg">
<path d="M44 22C44 34.1503 34.1503 44 22 44C9.84974 44 0 34.1503 0 22C0 9.84974 9.84974 0 22 0C34.1503 0 44 9.84974 44 22Z" fill="black"/>
<path d="M30.1426 27.1447C29.8099 27.9133 29.4161 28.6208 28.9598 29.2713C28.3379 30.158 27.8286 30.7719 27.4362 31.1127C26.8278 31.6722 26.176 31.9587 25.478 31.975C24.9769 31.975 24.3726 31.8324 23.6691 31.5432C22.9634 31.2553 22.3148 31.1127 21.7218 31.1127C21.0998 31.1127 20.4328 31.2553 19.7193 31.5432C19.0047 31.8324 18.4291 31.9832 17.989 31.9981C17.3196 32.0266 16.6524 31.7319 15.9865 31.1127C15.5614 30.742 15.0298 30.1064 14.3929 29.2061C13.7096 28.2446 13.1478 27.1297 12.7076 25.8587C12.2363 24.4857 12 23.1563 12 21.8692C12 20.3948 12.3186 19.1232 12.9567 18.0576C13.4582 17.2017 14.1254 16.5265 14.9604 16.0308C15.7954 15.5351 16.6977 15.2826 17.6693 15.2664C18.2009 15.2664 18.8981 15.4309 19.7645 15.7541C20.6285 16.0783 21.1832 16.2428 21.4264 16.2428C21.6083 16.2428 22.2245 16.0505 23.2692 15.6671C24.2571 15.3116 25.0909 15.1644 25.774 15.2224C27.6249 15.3718 29.0155 16.1014 29.9403 17.416C28.2849 18.419 27.466 19.8238 27.4823 21.626C27.4973 23.0297 28.0065 24.1979 29.0074 25.1254C29.4609 25.5558 29.9674 25.8885 30.531 26.1248C30.4088 26.4793 30.2798 26.8188 30.1426 27.1447ZM25.8976 10.4401C25.8976 11.5404 25.4956 12.5677 24.6944 13.5185C23.7275 14.6489 22.558 15.3021 21.2898 15.199C21.2737 15.067 21.2643 14.9281 21.2643 14.7821C21.2643 13.7259 21.7241 12.5955 22.5406 11.6713C22.9483 11.2033 23.4668 10.8142 24.0955 10.5038C24.7229 10.1981 25.3164 10.029 25.8745 10C25.8908 10.1471 25.8976 10.2942 25.8976 10.4401Z" fill="white"/>
</svg>
