<svg xmlns="http://www.w3.org/2000/svg" width="48" height="48" fill="none"><g filter="url(#a)"><rect width="44" height="44" x="2" y="1" fill="#1877F2" rx="22"/><g clip-path="url(#b)"><path fill="#fff" d="M36 23c0-6.627-5.373-12-12-12s-12 5.373-12 12c0 5.99 4.388 10.954 10.125 11.854V26.47h-3.047V23h3.047v-2.644c0-3.007 1.792-4.669 4.533-4.669 1.312 0 2.686.235 2.686.235v2.953H27.83c-1.491 0-1.956.925-1.956 1.875V23h3.328l-.532 3.469h-2.796v8.385C31.612 33.954 36 28.99 36 23Z"/></g></g><defs><clipPath id="b"><path fill="#fff" d="M12 11h24v24H12z"/></clipPath><filter id="a" width="48" height="48" x="0" y="0" color-interpolation-filters="sRGB" filterUnits="userSpaceOnUse"><feFlood flood-opacity="0" result="BackgroundImageFix"/><feColorMatrix in="SourceAlpha" result="hardAlpha" values="0 0 0 0 0 0 0 0 0 0 0 0 0 0 0 0 0 0 127 0"/><feOffset dy="1"/><feGaussianBlur stdDeviation="1"/><feColorMatrix values="0 0 0 0 0.0627451 0 0 0 0 0.0941176 0 0 0 0 0.156863 0 0 0 0.05 0"/><feBlend in2="BackgroundImageFix" result="effect1_dropShadow_100_1647"/><feBlend in="SourceGraphic" in2="effect1_dropShadow_100_1647" result="shape"/></filter></defs></svg>