<svg width="44" height="44" viewBox="0 0 44 44" fill="none" xmlns="http://www.w3.org/2000/svg">
<path fill-rule="evenodd" clip-rule="evenodd" d="M22 43C33.598 43 43 33.598 43 22C43 10.402 33.598 1 22 1C10.402 1 1 10.402 1 22C1 33.598 10.402 43 22 43Z" fill="white"/>
<path fill-rule="evenodd" clip-rule="evenodd" d="M22 43C33.598 43 43 33.598 43 22C43 10.402 33.598 1 22 1C10.402 1 1 10.402 1 22C1 33.598 10.402 43 22 43ZM22 44C34.1503 44 44 34.1503 44 22C44 9.84974 34.1503 0 22 0C9.84974 0 0 9.84974 0 22C0 34.1503 9.84974 44 22 44Z" fill="#D0D5DD"/>
<path d="M33.526 22.2763C33.526 21.4605 33.4599 20.6404 33.3188 19.8379H22V24.4589H28.4817C28.2128 25.9492 27.3485 27.2676 26.0831 28.1054V31.1037H29.95C32.2209 29.0137 33.526 25.9272 33.526 22.2763Z" fill="#4285F4"/>
<path d="M21.9999 34.0008C25.2363 34.0008 27.9657 32.9382 29.9543 31.1039L26.0873 28.1055C25.0114 28.8375 23.6225 29.252 22.0043 29.252C18.8736 29.252 16.2192 27.1399 15.2668 24.3003H11.2764V27.3912C13.3135 31.4434 17.4627 34.0008 21.9999 34.0008Z" fill="#34A853"/>
<path d="M15.2625 24.3002C14.7599 22.8099 14.7599 21.196 15.2625 19.7057V16.6147H11.2765C9.5745 20.0055 9.57436 24.0005 11.2764 27.3912L15.2625 24.3002Z" fill="#FBBC04"/>
<path d="M21.9999 14.7497C23.7107 14.7232 25.3642 15.367 26.6032 16.5487L30.0293 13.1226C27.8599 11.0855 24.9806 9.96553 21.9999 10.0008C17.4627 10.0008 13.3136 12.5582 11.2765 16.6147L15.2625 19.7057C16.2105 16.8617 18.8692 14.7497 21.9999 14.7497Z" fill="#EA4335"/>
</svg>
