<svg xmlns="http://www.w3.org/2000/svg" width="48" height="48" fill="none"><g filter="url(#a)"><rect width="44" height="44" x="2" y="1" fill="#fff" rx="22"/><g clip-path="url(#b)"><path fill="#4285F4" d="M35.766 23.276c0-.816-.066-1.636-.207-2.438H24.24v4.62h6.482a5.555 5.555 0 0 1-2.399 3.647v2.999h3.867c2.271-2.09 3.576-5.177 3.576-8.828Z"/><path fill="#34A853" d="M24.24 35c3.237 0 5.966-1.062 7.954-2.896l-3.866-2.998c-1.076.731-2.465 1.146-4.084 1.146-3.13 0-5.785-2.112-6.737-4.952h-3.99v3.091a12.002 12.002 0 0 0 10.723 6.61Z"/><path fill="#FBBC04" d="M17.503 25.3a7.187 7.187 0 0 1 0-4.594v-3.091h-3.986a12.01 12.01 0 0 0 0 10.776l3.986-3.09Z"/><path fill="#EA4335" d="M24.24 15.75a6.52 6.52 0 0 1 4.603 1.799l3.427-3.426A11.533 11.533 0 0 0 24.24 11a11.998 11.998 0 0 0-10.723 6.614l3.986 3.09c.948-2.843 3.607-4.955 6.737-4.955Z"/></g><rect width="43" height="43" x="2.5" y="1.5" stroke="#D0D5DD" rx="21.5"/></g><defs><clipPath id="b"><path fill="#fff" d="M12 11h24v24H12z"/></clipPath><filter id="a" width="48" height="48" x="0" y="0" color-interpolation-filters="sRGB" filterUnits="userSpaceOnUse"><feFlood flood-opacity="0" result="BackgroundImageFix"/><feColorMatrix in="SourceAlpha" result="hardAlpha" values="0 0 0 0 0 0 0 0 0 0 0 0 0 0 0 0 0 0 127 0"/><feOffset dy="1"/><feGaussianBlur stdDeviation="1"/><feColorMatrix values="0 0 0 0 0.0627451 0 0 0 0 0.0941176 0 0 0 0 0.156863 0 0 0 0.05 0"/><feBlend in2="BackgroundImageFix" result="effect1_dropShadow_100_1650"/><feBlend in="SourceGraphic" in2="effect1_dropShadow_100_1650" result="shape"/></filter></defs></svg>