<svg width="52" height="52" viewBox="0 0 52 52" fill="none" xmlns="http://www.w3.org/2000/svg">
<g filter="url(#filter0_dd_100_1652)">
<rect x="4" y="4" width="44" height="44" rx="22" fill="white"/>
<g clip-path="url(#clip0_100_1652)">
<path d="M37.7663 26.2763C37.7663 25.4605 37.7001 24.6404 37.559 23.8379H26.2402V28.4589H32.722C32.453 29.9492 31.5888 31.2676 30.3233 32.1054V35.1037H34.1903C36.4611 33.0137 37.7663 29.9272 37.7663 26.2763Z" fill="#4285F4"/>
<path d="M26.2401 38.0008C29.4766 38.0008 32.2059 36.9382 34.1945 35.1039L30.3276 32.1055C29.2517 32.8375 27.8627 33.252 26.2445 33.252C23.1139 33.252 20.4595 31.1399 19.507 28.3003H15.5166V31.3912C17.5537 35.4434 21.7029 38.0008 26.2401 38.0008Z" fill="#34A853"/>
<path d="M19.5028 28.3002C19.0001 26.8099 19.0001 25.196 19.5028 23.7057V20.6147H15.5167C13.8147 24.0055 13.8147 28.0004 15.5167 31.3912L19.5028 28.3002Z" fill="#FBBC04"/>
<path d="M26.2401 18.7497C27.9509 18.7232 29.6044 19.367 30.8434 20.5487L34.2695 17.1226C32.1001 15.0855 29.2208 13.9655 26.2401 14.0008C21.7029 14.0008 17.5537 16.5582 15.5166 20.6148L19.5026 23.7058C20.4506 20.8617 23.1095 18.7497 26.2401 18.7497Z" fill="#EA4335"/>
</g>
<rect x="4.5" y="4.5" width="43" height="43" rx="21.5" stroke="#D0D5DD"/>
</g>
<defs>
<filter id="filter0_dd_100_1652" x="0" y="0" width="52" height="52" filterUnits="userSpaceOnUse" color-interpolation-filters="sRGB">
<feFlood flood-opacity="0" result="BackgroundImageFix"/>
<feColorMatrix in="SourceAlpha" type="matrix" values="0 0 0 0 0 0 0 0 0 0 0 0 0 0 0 0 0 0 127 0" result="hardAlpha"/>
<feMorphology radius="4" operator="dilate" in="SourceAlpha" result="effect1_dropShadow_100_1652"/>
<feOffset/>
<feColorMatrix type="matrix" values="0 0 0 0 0.949765 0 0 0 0 0.955804 0 0 0 0 0.967882 0 0 0 1 0"/>
<feBlend mode="normal" in2="BackgroundImageFix" result="effect1_dropShadow_100_1652"/>
<feColorMatrix in="SourceAlpha" type="matrix" values="0 0 0 0 0 0 0 0 0 0 0 0 0 0 0 0 0 0 127 0" result="hardAlpha"/>
<feOffset dy="1"/>
<feGaussianBlur stdDeviation="1"/>
<feColorMatrix type="matrix" values="0 0 0 0 0.0627451 0 0 0 0 0.0941176 0 0 0 0 0.156863 0 0 0 0.05 0"/>
<feBlend mode="normal" in2="effect1_dropShadow_100_1652" result="effect2_dropShadow_100_1652"/>
<feBlend mode="normal" in="SourceGraphic" in2="effect2_dropShadow_100_1652" result="shape"/>
</filter>
<clipPath id="clip0_100_1652">
<rect width="24" height="24" fill="white" transform="translate(14 14)"/>
</clipPath>
</defs>
</svg>
