<?xml version="1.0" encoding="UTF-8"?>
<svg fill="none" viewBox="0 0 1920 6358" xmlns="http://www.w3.org/2000/svg">
<g clip-path="url(#h)">
<g filter="url(#g)">
<path d="m-464.62 2337.5c655.2-246.35 2705 383.36 2476.2 482.88-139.59 60.71-950.48 20.47-1431.8 203.58-307.7 117.05-340.27 416.52-435.38 594.36-243.89 456.03-1269.7-1032.4-609-1280.8z" fill="#E8598A" fill-opacity=".55"/>
</g>
<g filter="url(#f)">
<path d="m-1281.3 5915.2c-106.57-251.57 1844.3-1247 1903.5-1161.1 36.125 52.37 1237-446.83 1318.7-262.34 52.27 117.94-1679.2 1080.1-1432 1095.5 633.95 39.43-1682.8 581.65-1790.3 327.99z" fill="#E49EF3" fill-opacity=".75"/>
</g>
<g filter="url(#e)">
<path d="m2695.5 6028.9c-241.11 244.83-2095.2-187.48-2021.6-284.53 44.908-59.2-969.32-407.4-793.87-589.09 112.16-116.14 1845.8 210.64 1769.2 53.53-196.37-402.88 1289.3 573.21 1046.2 820.09z" fill="#FFB8F4" fill-opacity=".8"/>
</g>
<g filter="url(#d)">
<ellipse cx="1302.1" cy="844.91" rx="560.8" ry="600.57" fill="#F9A7FC"/>
</g>
<g filter="url(#c)">
<path d="m1864.9 957.21c-187.51 473.96-1690.5 86.159-1631.7-98.537 35.859-112.67 689.3 188.12 825.98-163.1 87.39-224.52 644.43-317.86 601-588.61-111.35-694.27 393.81 372.34 204.74 850.24z" fill="#FFFFC5" fill-opacity=".9"/>
</g>
<g filter="url(#b)">
<path d="m2006.7 3282.8c-189 209.24-2036.9-2.62-1986.2-81.35 30.965-48.02 352.89 108.16 489.33-46.46 87.221-98.84 498.28-47.08 365.05-136.94-341.64-230.43 1322.4 53.75 1131.8 264.75z" fill="#FFFBC6" fill-opacity=".9"/>
</g>
<g filter="url(#a)">
<path d="m6.0496-289.15c576.3-94.411 2119 888.08 1915.2 933.36-124.32 27.622-773.4-170.46-1197.2-99.156-270.9 45.582-352.94 312.36-463.01 455.71-282.25 367.59-836.1-1194.7-254.99-1289.9z" fill="#FF1464" fill-opacity=".48"/>
</g>
</g>
<defs>
<filter id="g" x="-1103" y="1860.8" width="3552.3" height="2263.8" color-interpolation-filters="sRGB" filterUnits="userSpaceOnUse">
<feFlood flood-opacity="0" result="BackgroundImageFix"/>
<feBlend in="SourceGraphic" in2="BackgroundImageFix" result="shape"/>
<feGaussianBlur result="effect1_foregroundBlur_364_338" stdDeviation="210"/>
</filter>
<filter id="f" x="-1705.6" y="4030.6" width="4067.6" height="2371.9" color-interpolation-filters="sRGB" filterUnits="userSpaceOnUse">
<feFlood flood-opacity="0" result="BackgroundImageFix"/>
<feBlend in="SourceGraphic" in2="BackgroundImageFix" result="shape"/>
<feGaussianBlur result="effect1_foregroundBlur_364_338" stdDeviation="210"/>
</filter>
<filter id="e" x="-560.37" y="4692.5" width="3702.8" height="1830.4" color-interpolation-filters="sRGB" filterUnits="userSpaceOnUse">
<feFlood flood-opacity="0" result="BackgroundImageFix"/>
<feBlend in="SourceGraphic" in2="BackgroundImageFix" result="shape"/>
<feGaussianBlur result="effect1_foregroundBlur_364_338" stdDeviation="210"/>
</filter>
<filter id="d" x="121.31" y="-375.65" width="2361.6" height="2441.1" color-interpolation-filters="sRGB" filterUnits="userSpaceOnUse">
<feFlood flood-opacity="0" result="BackgroundImageFix"/>
<feBlend in="SourceGraphic" in2="BackgroundImageFix" result="shape"/>
<feGaussianBlur result="effect1_foregroundBlur_364_338" stdDeviation="310"/>
</filter>
<filter id="c" x="-188.46" y="-541.26" width="2516.2" height="2145.1" color-interpolation-filters="sRGB" filterUnits="userSpaceOnUse">
<feFlood flood-opacity="0" result="BackgroundImageFix"/>
<feBlend in="SourceGraphic" in2="BackgroundImageFix" result="shape"/>
<feGaussianBlur result="effect1_foregroundBlur_364_338" stdDeviation="210"/>
</filter>
<filter id="b" x="-400.45" y="2512.4" width="2842.4" height="1280.2" color-interpolation-filters="sRGB" filterUnits="userSpaceOnUse">
<feFlood flood-opacity="0" result="BackgroundImageFix"/>
<feBlend in="SourceGraphic" in2="BackgroundImageFix" result="shape"/>
<feGaussianBlur result="effect1_foregroundBlur_364_338" stdDeviation="210"/>
</filter>
<filter id="a" x="-669.25" y="-715.54" width="3028.9" height="2192.2" color-interpolation-filters="sRGB" filterUnits="userSpaceOnUse">
<feFlood flood-opacity="0" result="BackgroundImageFix"/>
<feBlend in="SourceGraphic" in2="BackgroundImageFix" result="shape"/>
<feGaussianBlur result="effect1_foregroundBlur_364_338" stdDeviation="210"/>
</filter>
<clipPath id="h">
<rect width="1920" height="6358" fill="#fff"/>
</clipPath>
</defs>
</svg>
