<?xml version="1.0" encoding="UTF-8"?>
<svg fill="none" viewBox="0 0 1280 6082" xmlns="http://www.w3.org/2000/svg">
<g filter="url(#g)">
<path d="m20.021 2193.3c277.09-158.71 1148.1 250.17 1051.4 314.32-59.01 39.13-402.96 12.42-606.52 130.39-130.12 75.42-143.05 269.01-182.86 383.9-102.07 294.63-541.39-668.58-261.99-828.61z" fill="#E8598A" fill-opacity=".7"/>
</g>
<g filter="url(#f)">
<path d="m-181.59 5260.9c-24.234-318.4 719.27-929.18 735.62-814.26 9.976 70.1 461.56-175.34 480.62 59.16 12.17 149.91-651.93 782.48-565.29 867.79 222.18 218.78-626.52 208.37-650.95-112.69z" fill="#E49EF3"/>
</g>
<g filter="url(#e)">
<path d="m1422.1 5549.5c-226.56 225.03-1173.7 55.57-1096.9-31.44 46.869-53.07-432.89-237.45-266.82-404.1 106.17-106.53 1018.4-11.63 1027.1-132.91 22.32-311.01 565.06 341.54 336.61 568.45z" fill="#FFB8F4"/>
</g>
<g filter="url(#d)">
<circle cx="956.8" cy="731.8" r="560.8" fill="#F9A7FC"/>
</g>
<g filter="url(#c)">
<path d="m1255.5 818.22c-204.01 245.67-1351.6 251.23-1283.5 157.28 41.578-57.314 525.12 2.265 674.5-179.5 95.492-116.2 548.43-229.44 545.5-351-7.52-311.72 269.17 125.51 63.47 373.22z" fill="#FFFFC5"/>
</g>
<g filter="url(#b)">
<path d="m1091.8 2999.8c-120.5 295.72-865.72 110.12-829.03 0 22.377-67.18 129.33 127.7 217-90.63 56.044-139.57 220.92-91.97 181.5-207-101.1-294.96 552.03-0.55 430.53 297.63z" fill="#FFFBC6"/>
</g>
<g filter="url(#a)">
<path d="m63.068-222.58c305.33-93.482 1064.3 497.95 955.78 539.11-66.202 25.109-395.72-77.031-620.33-7.009-143.58 44.762-199.02 230.7-263.25 333.94-164.72 264.75-380.08-771.78-72.199-866.04z" fill="#FF1464" fill-opacity=".6"/>
</g>
<defs>
<filter id="g" x="-491.59" y="1737" width="1990.4" height="1760.6" color-interpolation-filters="sRGB" filterUnits="userSpaceOnUse">
<feFlood flood-opacity="0" result="BackgroundImageFix"/>
<feBlend in="SourceGraphic" in2="BackgroundImageFix" result="shape"/>
<feGaussianBlur result="effect1_foregroundBlur_303_449" stdDeviation="210"/>
</filter>
<filter id="f" x="-602.17" y="3981.8" width="2057" height="1960.5" color-interpolation-filters="sRGB" filterUnits="userSpaceOnUse">
<feFlood flood-opacity="0" result="BackgroundImageFix"/>
<feBlend in="SourceGraphic" in2="BackgroundImageFix" result="shape"/>
<feGaussianBlur result="effect1_foregroundBlur_303_449" stdDeviation="210"/>
</filter>
<filter id="e" x="-396.72" y="4478.6" width="2294.8" height="1602.9" color-interpolation-filters="sRGB" filterUnits="userSpaceOnUse">
<feFlood flood-opacity="0" result="BackgroundImageFix"/>
<feBlend in="SourceGraphic" in2="BackgroundImageFix" result="shape"/>
<feGaussianBlur result="effect1_foregroundBlur_303_449" stdDeviation="210"/>
</filter>
<filter id="d" x="-224" y="-449" width="2361.6" height="2361.6" color-interpolation-filters="sRGB" filterUnits="userSpaceOnUse">
<feFlood flood-opacity="0" result="BackgroundImageFix"/>
<feBlend in="SourceGraphic" in2="BackgroundImageFix" result="shape"/>
<feGaussianBlur result="effect1_foregroundBlur_303_449" stdDeviation="310"/>
</filter>
<filter id="c" x="-450.92" y="-83.05" width="2202.6" height="1534.8" color-interpolation-filters="sRGB" filterUnits="userSpaceOnUse">
<feFlood flood-opacity="0" result="BackgroundImageFix"/>
<feBlend in="SourceGraphic" in2="BackgroundImageFix" result="shape"/>
<feGaussianBlur result="effect1_foregroundBlur_303_449" stdDeviation="210"/>
</filter>
<filter id="b" x="-158.51" y="2159.9" width="1685.5" height="1419.3" color-interpolation-filters="sRGB" filterUnits="userSpaceOnUse">
<feFlood flood-opacity="0" result="BackgroundImageFix"/>
<feBlend in="SourceGraphic" in2="BackgroundImageFix" result="shape"/>
<feGaussianBlur result="effect1_foregroundBlur_303_449" stdDeviation="210"/>
</filter>
<filter id="a" x="-512.85" y="-652.58" width="1962.2" height="1759.2" color-interpolation-filters="sRGB" filterUnits="userSpaceOnUse">
<feFlood flood-opacity="0" result="BackgroundImageFix"/>
<feBlend in="SourceGraphic" in2="BackgroundImageFix" result="shape"/>
<feGaussianBlur result="effect1_foregroundBlur_303_449" stdDeviation="210"/>
</filter>
</defs>
</svg>
