<svg width="320" height="6226" viewBox="0 0 320 6226" fill="none" xmlns="http://www.w3.org/2000/svg">
<g clip-path="url(#clip0_415_331)">
<g filter="url(#filter0_f_415_331)">
<path d="M349.692 185.529C246.549 19.7511 28.192 -66.8585 -19.0864 122.887C-90.061 407.735 -227.934 1413.66 7.58034 1280.08C200.811 1170.48 -98.9633 470.241 96.606 387.706C182.9 351.288 224.436 567.851 289.426 442.228C434.857 161.117 506.625 437.764 349.692 185.529Z" fill="#E165FC"/>
</g>
<g filter="url(#filter1_f_415_331)">
<path d="M415.489 905.136C211.488 1184.28 364.196 993.091 99.0132 1118.08C-166.169 1243.07 -155.183 1199.63 -5.80413 993.091C89.6885 861.061 262.63 201.744 259.696 63.617C252.172 -290.583 621.192 623.665 415.489 905.136Z" fill="#FFFFC5"/>
</g>
<g filter="url(#filter2_f_415_331)">
<path d="M-81.3038 1583.96C195.785 1403.62 453.43 1302.56 356.696 1375.45C297.686 1419.91 402.196 1824.28 321.697 2141.87C191.572 2227.56 62.0007 2952.15 22.1964 3082.7C-79.8738 3417.49 -360.704 1765.8 -81.3038 1583.96Z" fill="#E8598A" fill-opacity="0.7"/>
</g>
<g filter="url(#filter3_f_415_331)">
<path d="M437.697 4045.7C509.383 4399.28 398.044 5504.99 62.697 5658.08C-272.65 5811.16 -93.3176 5703.52 -147.303 5443.32C-181.814 5276.98 -164.494 4696.37 -16.8023 4523.5C130.889 4350.64 365.413 3689.17 437.697 4045.7Z" fill="#FFB8F4"/>
</g>
<g filter="url(#filter4_f_415_331)">
<path d="M-137.997 4093.95C-91.5611 3734.96 469.358 3690.63 465.441 3828.75C461.525 3966.87 401.676 3743 368.651 4007.68C347.539 4176.89 176.063 4169.08 241.803 4285.32C410.382 4583.38 -184.82 4455.92 -137.997 4093.95Z" fill="#FFFBC6"/>
</g>
</g>
<defs>
<filter id="filter0_f_415_331" x="-544.191" y="-404.777" width="1402.36" height="2117.01" filterUnits="userSpaceOnUse" color-interpolation-filters="sRGB">
<feFlood flood-opacity="0" result="BackgroundImageFix"/>
<feBlend mode="normal" in="SourceGraphic" in2="BackgroundImageFix" result="shape"/>
<feGaussianBlur stdDeviation="210" result="effect1_foregroundBlur_415_331"/>
</filter>
<filter id="filter1_f_415_331" x="-530.873" y="-436.777" width="1428.81" height="2044.7" filterUnits="userSpaceOnUse" color-interpolation-filters="sRGB">
<feFlood flood-opacity="0" result="BackgroundImageFix"/>
<feBlend mode="normal" in="SourceGraphic" in2="BackgroundImageFix" result="shape"/>
<feGaussianBlur stdDeviation="210" result="effect1_foregroundBlur_415_331"/>
</filter>
<filter id="filter2_f_415_331" x="-621.668" y="931.585" width="1419.12" height="2615.77" filterUnits="userSpaceOnUse" color-interpolation-filters="sRGB">
<feFlood flood-opacity="0" result="BackgroundImageFix"/>
<feBlend mode="normal" in="SourceGraphic" in2="BackgroundImageFix" result="shape"/>
<feGaussianBlur stdDeviation="210" result="effect1_foregroundBlur_415_331"/>
</filter>
<filter id="filter3_f_415_331" x="-582.383" y="3521.79" width="1460.84" height="2626.72" filterUnits="userSpaceOnUse" color-interpolation-filters="sRGB">
<feFlood flood-opacity="0" result="BackgroundImageFix"/>
<feBlend mode="normal" in="SourceGraphic" in2="BackgroundImageFix" result="shape"/>
<feGaussianBlur stdDeviation="210" result="effect1_foregroundBlur_415_331"/>
</filter>
<filter id="filter4_f_415_331" x="-560.631" y="3336.33" width="1446.09" height="1534.93" filterUnits="userSpaceOnUse" color-interpolation-filters="sRGB">
<feFlood flood-opacity="0" result="BackgroundImageFix"/>
<feBlend mode="normal" in="SourceGraphic" in2="BackgroundImageFix" result="shape"/>
<feGaussianBlur stdDeviation="210" result="effect1_foregroundBlur_415_331"/>
</filter>
<clipPath id="clip0_415_331">
<rect width="320" height="6226" fill="white"/>
</clipPath>
</defs>
</svg>
