<?xml version="1.0" encoding="UTF-8"?>
<svg fill="none" viewBox="0 0 2560 6358" xmlns="http://www.w3.org/2000/svg">
<g clip-path="url(#h)">
<g filter="url(#g)">
<path d="m-344.66 2397.6c1020.4-245.96 4222.7 384.97 3866.4 484.36-217.35 60.63-1482.7 19.9-2232.3 202.73-479.21 116.87-527.92 416.32-675.06 594.11-377.29 455.89-1988-1033.2-959.02-1281.2z" fill="#E8598A" fill-opacity=".55"/>
</g>
<g filter="url(#f)">
<path d="m-1679.7 5548.2c-98.86-432.57 3350.4-1271.6 3421.2-1115.5 43.14 95.18 2133.1-243.75 2211.5 74.82 50.08 203.64-3034.4 1071.3-2638.7 1186.3 1014.6 294.82-2894.3 290.57-2994-145.6z" fill="#E49EF3" fill-opacity=".75"/>
</g>
<g filter="url(#e)">
<path d="m4814.2 5974.2c-833.57 240.98-4318.4 59.5-4035.7-33.67 172.44-56.84-1592.7-254.29-981.68-432.75 390.61-114.08 3746.9-12.46 3779-142.34 82.11-333.06 2079 365.76 1238.5 608.76z" fill="#FFB8F4" fill-opacity=".8"/>
</g>
<g filter="url(#d)">
<ellipse cx="1792.1" cy="814.91" rx="560.8" ry="600.57" fill="#F9A7FC"/>
</g>
<g filter="url(#c)">
<path d="m2181.2 1071.3c-222.83 371.61-1639 235.39-1566 92.03 44.56-87.46 648.58 70.11 811.52-205.04 104.16-175.89 649.98-301.78 631.99-498.8-46.12-505.24 347.14 237.1 122.45 611.81z" fill="#FFFFC5" fill-opacity=".9"/>
</g>
<g filter="url(#b)">
<path d="m4095.6 3450.4c-318.54 415.7-4009.6-49.32-3929.8-206.17 48.674-95.67 722.16 224.62 951.19-82.62 146.42-196.4 968.65-83.66 683.49-266.83-731.24-469.67 2616.3 136.46 2295.1 555.62z" fill="#FFFBC6" fill-opacity=".9"/>
</g>
<g filter="url(#a)">
<path d="m340.53-339.28c629.84-108.39 2309.8 977.11 2087 1028.7-135.9 31.461-843.8-185.48-1307-103.69-296.07 52.289-386.98 349.86-507.89 510.13-310.05 410.97-907.25-1325.8-272.15-1435.1z" fill="#FF1464" fill-opacity=".48"/>
</g>
</g>
<defs>
<filter id="g" x="-1103" y="1921.1" width="5072.2" height="2263.9" color-interpolation-filters="sRGB" filterUnits="userSpaceOnUse">
<feFlood flood-opacity="0" result="BackgroundImageFix"/>
<feBlend in="SourceGraphic" in2="BackgroundImageFix" result="shape"/>
<feGaussianBlur result="effect1_foregroundBlur_357_335" stdDeviation="210"/>
</filter>
<filter id="f" x="-2101.8" y="3947.7" width="6475.3" height="2370.4" color-interpolation-filters="sRGB" filterUnits="userSpaceOnUse">
<feFlood flood-opacity="0" result="BackgroundImageFix"/>
<feBlend in="SourceGraphic" in2="BackgroundImageFix" result="shape"/>
<feGaussianBlur result="effect1_foregroundBlur_357_335" stdDeviation="210"/>
</filter>
<filter id="e" x="-752.36" y="4857.1" width="6192.6" height="1657" color-interpolation-filters="sRGB" filterUnits="userSpaceOnUse">
<feFlood flood-opacity="0" result="BackgroundImageFix"/>
<feBlend in="SourceGraphic" in2="BackgroundImageFix" result="shape"/>
<feGaussianBlur result="effect1_foregroundBlur_357_335" stdDeviation="210"/>
</filter>
<filter id="d" x="611.32" y="-405.65" width="2361.6" height="2441.1" color-interpolation-filters="sRGB" filterUnits="userSpaceOnUse">
<feFlood flood-opacity="0" result="BackgroundImageFix"/>
<feBlend in="SourceGraphic" in2="BackgroundImageFix" result="shape"/>
<feGaussianBlur result="effect1_foregroundBlur_357_335" stdDeviation="310"/>
</filter>
<filter id="c" x="192.48" y="-130.99" width="2478.5" height="1861.8" color-interpolation-filters="sRGB" filterUnits="userSpaceOnUse">
<feFlood flood-opacity="0" result="BackgroundImageFix"/>
<feBlend in="SourceGraphic" in2="BackgroundImageFix" result="shape"/>
<feGaussianBlur result="effect1_foregroundBlur_357_335" stdDeviation="210"/>
</filter>
<filter id="b" x="-255.43" y="2304.4" width="4792.8" height="1734.5" color-interpolation-filters="sRGB" filterUnits="userSpaceOnUse">
<feFlood flood-opacity="0" result="BackgroundImageFix"/>
<feBlend in="SourceGraphic" in2="BackgroundImageFix" result="shape"/>
<feGaussianBlur result="effect1_foregroundBlur_357_335" stdDeviation="210"/>
</filter>
<filter id="a" x="-360.4" y="-766.89" width="3228.1" height="2345.5" color-interpolation-filters="sRGB" filterUnits="userSpaceOnUse">
<feFlood flood-opacity="0" result="BackgroundImageFix"/>
<feBlend in="SourceGraphic" in2="BackgroundImageFix" result="shape"/>
<feGaussianBlur result="effect1_foregroundBlur_357_335" stdDeviation="210"/>
</filter>
<clipPath id="h">
<rect width="2560" height="6358" fill="#fff"/>
</clipPath>
</defs>
</svg>
