<?xml version="1.0" encoding="UTF-8"?>
<svg fill="none" viewBox="0 0 390 412" xmlns="http://www.w3.org/2000/svg">
<path d="m322.92 75.222c40.36 25.127 42.766 68.211 48.551 108.11 6.071 41.881 20.187 87.823-15.543 119.57-38.489 34.195-101.79 40.327-160.09 36.475-63.221-4.178-130.21-16.671-164.79-57.943-35.875-42.812-5.001-73.752 22.163-120.26 25.199-43.147 51.575-95.068 110.63-107.11 54.746-11.161 114.94-6.3232 159.08 21.163z" clip-rule="evenodd" fill-rule="evenodd" stroke="#fff" stroke-width=".77704"/>
<path d="m400.2 142.92c14.929 38.442-14.53 75.011-38.879 110.44-25.56 37.189-47.454 81.258-100.07 91.728-56.68 11.278-113.33-11.474-158.58-40.262-49.062-31.215-95.157-70.939-93.544-120.15 1.6737-51.047 49.702-62.987 106.04-89.393 52.26-24.495 111.89-55.705 169.35-39.687 53.27 14.85 99.352 45.278 115.68 87.327z" clip-rule="evenodd" fill-rule="evenodd" stroke="#fff" stroke-width=".77704"/>
<path d="m409.02 250.24c-21.471 36.53-74.706 48.932-123.13 63.091-50.831 14.863-104.76 36.774-153.2 17.709-52.185-20.538-75.409-66.633-84.931-111.43-10.324-48.571-11.184-102.02 31.876-138.17 44.667-37.505 90.913-21.894 155.7-12.901 60.102 8.342 131.46 15.412 161.01 56.86 27.404 38.427 36.158 84.881 12.673 124.84z" clip-rule="evenodd" fill-rule="evenodd" stroke="#fff" stroke-width=".77704"/>
<path d="m342.51 88.681c0 1.6456-1.804 3.2909-4.466 3.2909s-4.466-1.6453-4.466-3.2909c0-1.6455 1.804-3.2909 4.466-3.2909s4.466 1.6454 4.466 3.2909z" stroke="#fff" stroke-width="1.5541"/>
<path d="m22.142 224.96c0 1.646-1.8046 3.291-4.4663 3.291s-4.4662-1.645-4.4662-3.291c0-1.645 1.8045-3.291 4.4662-3.291s4.4663 1.646 4.4663 3.291z" stroke="#fff" stroke-width="1.5541"/>
<path d="m45.212 179.4c0 0.972-1.1003 2.071-2.8933 2.071-1.7929 0-2.8932-1.099-2.8932-2.071 0-0.971 1.1003-2.07 2.8932-2.07 1.793 0 2.8933 1.099 2.8933 2.07z" stroke="#fff" stroke-width="1.5541"/>
<path d="m49.932 126.31c0 0.41-0.5135 1.054-1.5825 1.054s-1.5824-0.644-1.5824-1.054 0.5134-1.054 1.5824-1.054 1.5825 0.644 1.5825 1.054z" stroke="#fff" stroke-width="1.5541"/>
<path d="m377.11 105.36c0 0.747-0.866 1.664-2.369 1.664-1.504 0-2.369-0.917-2.369-1.664s0.865-1.664 2.369-1.664c1.503 0 2.369 0.917 2.369 1.664z" stroke="#fff" stroke-width="1.5541"/>
<path d="m382.74 228.93c0 1.645-1.805 3.291-4.467 3.291-2.661 0-4.466-1.646-4.466-3.291 0-1.646 1.805-3.291 4.466-3.291 2.662 0 4.467 1.645 4.467 3.291z" stroke="#fff" stroke-width="1.5541"/>
<path d="m331.88 299.71c0 0.972-1.1 2.071-2.893 2.071s-2.893-1.099-2.893-2.071c0-0.971 1.1-2.07 2.893-2.07s2.893 1.099 2.893 2.07z" stroke="#fff" stroke-width="1.5541"/>
<path d="m374.49 284.35c0 0.972-1.101 2.071-2.893 2.071-1.793 0-2.894-1.099-2.894-2.071 0-0.971 1.101-2.07 2.894-2.07 1.792 0 2.893 1.099 2.893 2.07z" stroke="#fff" stroke-width="1.5541"/>
<path d="m294.13 333.48c0 0.297-0.396 0.85-1.32 0.85-0.925 0-1.321-0.553-1.321-0.85 0-0.298 0.396-0.851 1.321-0.851 0.924 0 1.32 0.553 1.32 0.851z" stroke="#fff" stroke-width="1.5541"/>
<path d="m136.31 332.26c0 0.298-0.396 0.85-1.32 0.85s-1.32-0.552-1.32-0.85c0-0.297 0.396-0.85 1.32-0.85s1.32 0.553 1.32 0.85z" stroke="#fff" stroke-width="1.5541"/>
<path d="m78.632 285.88c0 1.196-1.3351 2.478-3.4176 2.478s-3.4176-1.282-3.4176-2.478 1.3351-2.477 3.4176-2.477 3.4176 1.281 3.4176 2.477z" stroke="#fff" stroke-width="1.5541"/>
<path d="m153.61 57.873c0 0.8592-0.983 1.8671-2.631 1.8671s-2.631-1.0079-2.631-1.8671 0.983-1.8671 2.631-1.8671 2.631 1.0079 2.631 1.8671z" stroke="#fff" stroke-width="1.5541"/>
<path d="m259 50.958c0 0.8592-0.983 1.8671-2.631 1.8671-1.649 0-2.632-1.0079-2.632-1.8671s0.983-1.8671 2.632-1.8671c1.648 0 2.631 1.0079 2.631 1.8671z" stroke="#fff" stroke-width="1.5541"/>
<path d="m89.119 108.52c0 1.196-1.3351 2.477-3.4176 2.477s-3.4176-1.281-3.4176-2.477 1.3351-2.477 3.4176-2.477 3.4176 1.281 3.4176 2.477z" stroke="#fff" stroke-width="1.5541"/>
<mask id="a" fill="white">
<ellipse cx="193.45" cy="61.941" rx="1.8352" ry="1.4238"/>
</mask>
<path d="m193.73 61.941c0-0.0809 0.022-0.1477 0.045-0.1897 0.021-0.0383 0.035-0.0442 0.019-0.0314-0.038 0.0293-0.155 0.0908-0.345 0.0908v3.1081c1.482 0 3.389-0.9893 3.389-2.9778h-3.108zm-0.281-0.1303c-0.191 0-0.307-0.0615-0.345-0.0908-0.017-0.0128-2e-3 -0.0069 0.018 0.0314 0.023 0.042 0.046 0.1088 0.046 0.1897h-3.108c0 1.9885 1.907 2.9778 3.389 2.9778v-3.1081zm-0.281 0.1303c0 0.0808-0.023 0.1476-0.046 0.1896-0.02 0.0383-0.035 0.0442-0.018 0.0315 0.038-0.0293 0.154-0.0908 0.345-0.0908v-3.1082c-1.482 0-3.389 0.9893-3.389 2.9779h3.108zm0.281 0.1303c0.19 0 0.307 0.0615 0.345 0.0908 0.016 0.0127 2e-3 0.0068-0.019-0.0315-0.023-0.042-0.045-0.1088-0.045-0.1896h3.108c0-1.9886-1.907-2.9779-3.389-2.9779v3.1082z" fill="#fff" mask="url(#a)"/>
<path d="m175.63 337.54c0 2.32-2.508 4.512-6.039 4.512-3.53 0-6.039-2.192-6.039-4.512 0-2.319 2.509-4.511 6.039-4.511 3.531 0 6.039 2.192 6.039 4.511z" stroke="#fff" stroke-width="1.5541"/>
<path d="m335.17 284.35c0 0.972-1.101 2.071-2.894 2.071s-2.893-1.099-2.893-2.071c0-0.971 1.1-2.07 2.893-2.07s2.894 1.099 2.894 2.07z" stroke="#fff" stroke-width="1.5541"/>
</svg>
