<?xml version="1.0" encoding="UTF-8"?>
<svg fill="none" viewBox="0 0 1280 1023" xmlns="http://www.w3.org/2000/svg">
<path d="m889.92 187.03c98.968 62.477 104.87 169.6 119.05 268.79 14.89 104.13 49.5 218.36-38.114 297.29-94.379 85.021-249.6 100.27-392.56 90.689-155.02-10.387-319.28-41.45-404.08-144.06-87.97-106.44-12.263-183.37 54.346-299.02 61.791-107.28 126.47-236.37 271.27-266.3 134.24-27.75 281.84-15.722 390.09 52.617z" clip-rule="evenodd" fill-rule="evenodd" stroke="#fff" stroke-width=".77704"/>
<path d="m1079.4 355.34c36.61 95.579-35.63 186.5-95.334 274.58-62.676 92.462-116.36 202.03-245.39 228.07-138.99 28.041-277.9-28.529-388.85-100.1-120.3-77.613-233.34-176.38-229.38-298.73 4.104-126.92 121.88-156.61 260.02-222.26 128.15-60.903 274.37-138.5 415.27-98.676 130.63 36.922 243.63 112.58 283.67 217.13z" clip-rule="evenodd" fill-rule="evenodd" stroke="#fff" stroke-width=".77704"/>
<path d="m1101 622.17c-52.65 90.826-183.18 121.66-301.92 156.87-124.64 36.954-256.88 91.433-375.68 44.029-127.96-51.063-184.91-165.67-208.26-277.04-25.316-120.76-27.425-253.65 78.163-343.54 109.53-93.25 222.93-54.435 381.8-32.076 147.38 20.741 322.34 38.32 394.83 141.38 67.19 95.543 88.66 211.04 31.07 310.39z" clip-rule="evenodd" fill-rule="evenodd" stroke="#fff" stroke-width=".77704"/>
<path d="m939.08 220.49c0 4.993-5.224 9.337-12.08 9.337-6.855 0-12.08-4.344-12.08-9.337 0-4.994 5.225-9.338 12.08-9.338 6.856 0 12.08 4.344 12.08 9.338z" stroke="#fff" stroke-width="1.5541"/>
<path d="m153.51 559.32c0 4.994-5.225 9.337-12.081 9.337-6.855 0-12.08-4.343-12.08-9.337 0-4.993 5.225-9.337 12.08-9.337 6.856 0 12.081 4.344 12.081 9.337z" stroke="#fff" stroke-width="1.5541"/>
<path d="m210.08 446.04c0 3.318-3.497 6.303-8.223 6.303-4.725 0-8.222-2.985-8.222-6.303 0-3.317 3.497-6.303 8.222-6.303 4.726 0 8.223 2.986 8.223 6.303z" stroke="#fff" stroke-width="1.5541"/>
<path d="m221.65 314.05c0 1.922-2.059 3.775-5.009 3.775s-5.009-1.853-5.009-3.775c0-1.921 2.059-3.774 5.009-3.774s5.009 1.853 5.009 3.774z" stroke="#fff" stroke-width="1.5541"/>
<path d="m1023.9 261.96c0 2.759-2.92 5.291-6.93 5.291-4.02 0-6.94-2.532-6.94-5.291s2.92-5.292 6.94-5.292c4.01 0 6.93 2.533 6.93 5.292z" stroke="#fff" stroke-width="1.5541"/>
<path d="m1037.7 569.2c0 4.994-5.22 9.338-12.08 9.338-6.85 0-12.08-4.344-12.08-9.338 0-4.993 5.23-9.337 12.08-9.337 6.86 0 12.08 4.344 12.08 9.337z" stroke="#fff" stroke-width="1.5541"/>
<path d="m913.03 745.19c0 3.318-3.498 6.303-8.223 6.303-4.726 0-8.223-2.985-8.223-6.303 0-3.317 3.497-6.303 8.223-6.303 4.725 0 8.223 2.986 8.223 6.303z" stroke="#fff" stroke-width="1.5541"/>
<path d="m1017.5 706.99c0 3.318-3.5 6.303-8.23 6.303-4.72 0-8.22-2.985-8.22-6.303s3.5-6.303 8.22-6.303c4.73 0 8.23 2.985 8.23 6.303z" stroke="#fff" stroke-width="1.5541"/>
<path d="m820.46 829.14c0 1.642-1.77 3.269-4.365 3.269-2.596 0-4.366-1.627-4.366-3.269s1.77-3.269 4.366-3.269c2.595 0 4.365 1.627 4.365 3.269z" stroke="#fff" stroke-width="1.5541"/>
<path d="m433.46 826.11c0 1.642-1.771 3.268-4.366 3.268s-4.366-1.626-4.366-3.268 1.771-3.269 4.366-3.269 4.366 1.627 4.366 3.269z" stroke="#fff" stroke-width="1.5541"/>
<path d="m292.03 710.8c0 3.877-4.073 7.315-9.509 7.315-5.435 0-9.509-3.438-9.509-7.315 0-3.876 4.074-7.314 9.509-7.314 5.436 0 9.509 3.438 9.509 7.314z" stroke="#fff" stroke-width="1.5541"/>
<path d="m475.88 143.89c0 3.038-3.21 5.797-7.581 5.797-4.37 0-7.58-2.759-7.58-5.797 0-3.039 3.21-5.798 7.58-5.798 4.371 0 7.581 2.759 7.581 5.798z" stroke="#fff" stroke-width="1.5541"/>
<path d="m734.31 126.7c0 3.038-3.209 5.797-7.58 5.797-4.37 0-7.58-2.759-7.58-5.797s3.21-5.797 7.58-5.797c4.371 0 7.58 2.759 7.58 5.797z" stroke="#fff" stroke-width="1.5541"/>
<path d="m317.74 269.82c0 3.876-4.073 7.314-9.509 7.314s-9.509-3.438-9.509-7.314c0-3.877 4.073-7.315 9.509-7.315s9.509 3.438 9.509 7.315z" stroke="#fff" stroke-width="1.5541"/>
<path d="m576.17 154.01c0 1.363-1.483 2.763-3.723 2.763s-3.723-1.4-3.723-2.763 1.483-2.763 3.723-2.763 3.723 1.4 3.723 2.763z" stroke="#fff" stroke-width="1.5541"/>
<path d="m529.88 839.26c0 6.669-6.951 12.371-15.937 12.371s-15.937-5.702-15.937-12.371c0-6.67 6.951-12.372 15.937-12.372s15.937 5.702 15.937 12.372z" stroke="#fff" stroke-width="1.5541"/>
<path d="m921.08 706.99c0 3.318-3.497 6.303-8.223 6.303-4.725 0-8.222-2.985-8.222-6.303s3.497-6.303 8.222-6.303c4.726 0 8.223 2.985 8.223 6.303z" stroke="#fff" stroke-width="1.5541"/>
</svg>
