<svg width="672" height="717" viewBox="0 0 672 717" fill="none" xmlns="http://www.w3.org/2000/svg">
<g opacity="0.3">
<path d="M220.615 621.621L231.261 474.465L174.993 392.082L83.0923 405.531L182.097 256.924L205.053 245.622L241.303 254.545L291.127 214.823L451.185 240.67L649.029 236.656" stroke="white" stroke-opacity="0.5" stroke-width="3"/>
<path d="M383.8 411.751L303.761 339.554L291.127 214.823" stroke="white" stroke-opacity="0.5" stroke-width="3"/>
</g>
<path d="M69.3312 395.775L80.8684 397.994L88.6739 390.05L90.7756 401.362L101.399 406.669L91.164 411.44L89.9221 422.664L81.4913 414.302L70.1032 415.932L75.1291 405.994L69.3312 395.775Z" fill="white" fill-opacity="0.5"/>
<path d="M168.879 247.564L180.416 249.783L188.222 241.839L190.325 253.151L200.947 258.459L190.712 263.229L189.47 274.455L181.041 266.091L169.651 267.721L174.676 257.783L168.879 247.564Z" fill="white" fill-opacity="0.5"/>
<path d="M192.309 236.234L203.847 238.455L211.652 230.508L213.757 241.822L224.379 247.127L214.143 251.9L212.901 263.124L204.472 254.761L193.082 256.39L198.108 246.453L192.309 236.234Z" fill="white" fill-opacity="0.5"/>
<path d="M229.315 243.183L240.854 245.402L248.66 237.457L250.763 248.77L261.384 254.077L251.149 258.849L249.907 270.072L241.479 261.71L230.088 263.341L235.114 253.402L229.315 243.183Z" fill="white" fill-opacity="0.5"/>
<path d="M279.238 206.289L290.775 208.508L298.581 200.562L300.685 211.875L311.305 217.182L301.071 221.954L299.829 233.178L291.4 224.815L280.01 226.446L285.036 216.507L279.238 206.289Z" fill="white" fill-opacity="0.5"/>
<path d="M291.617 331.144L303.156 333.364L310.962 325.419L313.066 336.731L323.686 342.038L313.451 346.81L312.21 358.034L303.781 349.671L292.391 351.302L297.417 341.363L291.617 331.144Z" fill="white" fill-opacity="0.5"/>
<path d="M370.635 402.305L382.174 404.526L389.979 396.579L392.082 407.892L402.704 413.2L392.468 417.97L391.227 429.195L382.797 420.831L371.408 422.461L376.434 412.525L370.635 402.305Z" fill="white" fill-opacity="0.5"/>
<path d="M437.039 230.668L448.576 232.887L456.381 224.943L458.485 236.256L469.107 241.564L458.871 246.333L457.631 257.558L449.2 249.195L437.811 250.825L442.836 240.886L437.039 230.668Z" fill="white" fill-opacity="0.5"/>
<path d="M635.859 227.214L647.398 229.435L655.202 221.489L657.305 232.802L667.927 238.11L657.693 242.88L656.45 254.106L648.02 245.742L636.631 247.372L641.658 237.434L635.859 227.214Z" fill="white" fill-opacity="0.5"/>
<path d="M160.944 383.15L172.483 385.371L180.287 377.425L182.39 388.738L193.013 394.045L182.777 398.815L181.536 410.042L173.106 401.678L161.717 403.308L166.744 393.37L160.944 383.15Z" fill="white" fill-opacity="0.5"/>
<path d="M216.522 463.604L228.059 465.823L235.864 457.877L237.967 469.189L248.589 474.497L238.353 479.268L237.111 490.494L228.683 482.129L217.292 483.76L222.319 473.822L216.522 463.604Z" fill="white" fill-opacity="0.5"/>
<path d="M213.991 515.11L225.529 517.33L233.335 509.384L235.437 520.695L246.059 526.004L235.824 530.775L234.582 541.999L226.152 533.635L214.764 535.266L219.789 525.328L213.991 515.11Z" fill="white" fill-opacity="0.5"/>
<path d="M207.588 612.276L219.126 614.496L226.932 606.55L229.035 617.862L239.657 623.171L229.421 627.941L228.181 639.166L219.75 630.804L208.361 632.433L213.386 622.495L207.588 612.276Z" fill="white" fill-opacity="0.5"/>
</svg>
