<svg width="195" height="278" viewBox="0 0 195 278" fill="none" xmlns="http://www.w3.org/2000/svg">
<g opacity="0.3">
<path d="M83.592 19.4456L74.4565 71.2545L58.3392 98.4001L48.7512 128.725L33.2723 121.657L-13.36 134.896L-26.1984 166.332L-30.1516 178.11L4.62968 212.969L13.9638 219.051L46.17 251.701L95.5191 237.917" stroke="#CFCFCF" stroke-opacity="0.678431" stroke-width="3"/>
<path d="M46.1701 251.701L72.5631 216.402" stroke="#CFCFCF" stroke-opacity="0.678431" stroke-width="3"/>
<path d="M-30.397 76.5828L-17.6646 83.0479L-2.51235 81.7296L11.1936 83.6118L33.2723 121.657L42.983 104.423L58.3392 98.4001" stroke="#CFCFCF" stroke-opacity="0.678431" stroke-width="3"/>
<path d="M74.4565 71.2544L99.2748 92.9044L114.766 125.469L134.498 136.498" stroke="#CFCFCF" stroke-opacity="0.678431" stroke-width="3"/>
<path d="M99.2748 92.9044L122.338 85.0183L136.005 56.0045" stroke="#CFCFCF" stroke-opacity="0.678431" stroke-width="3"/>
</g>
<path d="M-4.43929 75.2397L-1.57414 78.233L2.30778 77.5428L0.586404 81.224L2.55283 84.9185L-1.37553 84.1999L-4.04152 87.1733L-4.74824 83.0481L-8.36259 81.1913L-4.87186 79.3606L-4.43929 75.2397Z" fill="#CFCFCF" fill-opacity="0.678431"/>
<path d="M9.5388 78.1235L12.404 81.1169L16.2859 80.4267L14.5643 84.1073L16.5309 87.8023L12.6026 87.0838L9.93657 90.0571L9.22911 85.9316L5.61495 84.0753L9.10624 82.2445L9.5388 78.1235Z" fill="#CFCFCF" fill-opacity="0.678431"/>
<path d="M31.0432 115.851L33.9084 118.844L37.7895 118.154L36.0681 121.835L38.0346 125.529L34.107 124.811L31.4402 127.784L30.7335 123.659L27.1192 121.802L30.6106 119.972L31.0432 115.851Z" fill="#CFCFCF" fill-opacity="0.678431"/>
<path d="M41.4968 98.591L44.362 101.584L48.2433 100.894L46.5218 104.575L48.4887 108.269L44.5606 107.551L41.8938 110.524L41.1871 106.399L37.573 104.543L41.0642 102.712L41.4968 98.591Z" fill="#CFCFCF" fill-opacity="0.678431"/>
<path d="M56.466 92.9233L59.3312 95.9167L63.2131 95.2265L61.4917 98.9077L63.458 102.602L59.5298 101.884L56.8636 104.856L56.1565 100.732L52.5422 98.8752L56.0335 97.0443L56.466 92.9233Z" fill="#CFCFCF" fill-opacity="0.678431"/>
<path d="M72.4441 65.3742L75.3098 68.3674L79.1911 67.6774L77.4698 71.3586L79.436 75.0524L75.5078 74.3345L72.8416 77.3072L72.1351 73.1827L68.5202 71.3261L72.0115 69.4952L72.4441 65.3742Z" fill="#CFCFCF" fill-opacity="0.678431"/>
<path d="M97.3073 87.1584L100.173 90.1517L104.054 89.4616L102.333 93.1428L104.299 96.8367L100.371 96.1187L97.7049 99.0915L96.9984 94.9669L93.3835 93.1103L96.8748 91.2794L97.3073 87.1584Z" fill="#CFCFCF" fill-opacity="0.678431"/>
<path d="M112.725 120.33L115.59 123.324L119.472 122.633L117.75 126.314L119.717 130.009L115.789 129.291L113.123 132.264L112.416 128.138L108.801 126.282L112.293 124.451L112.725 120.33Z" fill="#CFCFCF" fill-opacity="0.678431"/>
<path d="M132.837 131.032L135.702 134.025L139.584 133.335L137.862 137.016L139.829 140.71L135.901 139.992L133.235 142.965L132.528 138.84L128.913 136.984L132.405 135.153L132.837 131.032Z" fill="#CFCFCF" fill-opacity="0.678431"/>
<path d="M120.483 79.6181L123.348 82.6116L127.229 81.9209L125.508 85.6021L127.475 89.297L123.547 88.5785L120.88 91.5519L120.173 87.4262L116.559 85.5694L120.051 83.7391L120.483 79.6181Z" fill="#CFCFCF" fill-opacity="0.678431"/>
<path d="M134.066 50.3388L136.931 53.3321L140.812 52.6414L139.091 56.3226L141.058 60.0176L137.129 59.299L134.463 62.2724L133.756 58.1466L130.142 56.2899L133.633 54.4597L134.066 50.3388Z" fill="#CFCFCF" fill-opacity="0.678431"/>
<path d="M81.7439 14.0427L84.6092 17.0367L88.4912 16.3465L86.7696 20.0271L88.736 23.7215L84.8078 23.0036L82.1416 25.9763L81.4349 21.8511L77.8202 19.9952L81.3115 18.1643L81.7439 14.0427Z" fill="#CFCFCF" fill-opacity="0.678431"/>
<path d="M46.7731 122.772L49.6385 125.766L53.5204 125.075L51.799 128.757L53.7652 132.45L49.8371 131.733L47.1709 134.705L46.4644 130.581L42.85 128.724L46.3407 126.893L46.7731 122.772Z" fill="#CFCFCF" fill-opacity="0.678431"/>
<path d="M2.35715 206.604L5.22251 209.598L9.10389 208.908L7.3823 212.589L9.34873 216.283L5.42113 215.565L2.75438 218.538L2.04766 214.413L-1.56647 212.557L1.92479 210.726L2.35715 206.604Z" fill="#CFCFCF" fill-opacity="0.678431"/>
<path d="M11.823 213.583L14.6883 216.577L18.57 215.886L16.8487 219.568L18.8153 223.263L14.8869 222.544L12.2209 225.517L11.514 221.392L7.89913 219.535L11.3906 217.705L11.823 213.583Z" fill="#CFCFCF" fill-opacity="0.678431"/>
<path d="M44.1589 245.82L47.0241 248.813L50.9052 248.123L49.1839 251.804L51.1503 255.499L47.2227 254.78L44.5559 257.753L43.8492 253.628L40.2349 251.771L43.7258 249.941L44.1589 245.82Z" fill="#CFCFCF" fill-opacity="0.678431"/>
<path d="M93.7566 232.485L96.6217 235.478L100.504 234.788L98.7823 238.469L100.749 242.163L96.8203 241.445L94.1543 244.418L93.4476 240.293L89.8327 238.436L93.324 236.606L93.7566 232.485Z" fill="#CFCFCF" fill-opacity="0.678431"/>
<path d="M70.5534 210.522L73.4186 213.515L77.3003 212.824L75.5789 216.506L77.5454 220.2L73.6172 219.482L70.9505 222.455L70.2443 218.33L66.6294 216.473L70.1209 214.643L70.5534 210.522Z" fill="#CFCFCF" fill-opacity="0.678431"/>
</svg>
