<svg width="2651" height="2566" viewBox="0 0 2651 2566" fill="none" xmlns="http://www.w3.org/2000/svg">
<g id="topgroup">
<g id="top3" filter="url(#filter0_f_478_413)">
<circle cx="1469.8" cy="1384.8" r="560.804" fill="#F9A7FC"/>
</g>
<g id="top2" filter="url(#filter1_f_478_413)">
<path d="M1768.47 1471.22C1564.46 1716.89 416.842 1722.45 485 1628.5C526.578 1571.19 1010.12 1630.76 1159.5 1449C1254.99 1332.8 1707.93 1219.56 1705 1098C1697.48 786.28 1974.17 1223.51 1768.47 1471.22Z" fill="#FFFFC5"/>
</g>
<g id="top1" filter="url(#filter2_f_478_413)">
<path d="M576.067 430.425C881.401 336.943 1640.38 928.375 1531.85 969.536C1465.65 994.645 1136.13 892.506 911.521 962.527C767.936 1007.29 712.502 1193.22 648.266 1296.47C483.548 1561.22 268.187 524.687 576.067 430.425Z" fill="#FF1464" fill-opacity="0.6"/>
</g>
</g>
<defs>
<filter id="filter0_f_478_413" x="289" y="203.999" width="2361.61" height="2361.61" filterUnits="userSpaceOnUse" color-interpolation-filters="sRGB">
<feFlood flood-opacity="0" result="BackgroundImageFix"/>
<feBlend mode="normal" in="SourceGraphic" in2="BackgroundImageFix" result="shape"/>
<feGaussianBlur stdDeviation="310" result="effect1_foregroundBlur_478_413"/>
</filter>
<filter id="filter1_f_478_413" x="62.085" y="569.95" width="2202.59" height="1534.85" filterUnits="userSpaceOnUse" color-interpolation-filters="sRGB">
<feFlood flood-opacity="0" result="BackgroundImageFix"/>
<feBlend mode="normal" in="SourceGraphic" in2="BackgroundImageFix" result="shape"/>
<feGaussianBlur stdDeviation="210" result="effect1_foregroundBlur_478_413"/>
</filter>
<filter id="filter2_f_478_413" x="0.144531" y="0.421875" width="1962.24" height="1759.19" filterUnits="userSpaceOnUse" color-interpolation-filters="sRGB">
<feFlood flood-opacity="0" result="BackgroundImageFix"/>
<feBlend mode="normal" in="SourceGraphic" in2="BackgroundImageFix" result="shape"/>
<feGaussianBlur stdDeviation="210" result="effect1_foregroundBlur_478_413"/>
</filter>
</defs>
</svg>
