<svg width="269" height="270" viewBox="0 0 269 270" fill="none" xmlns="http://www.w3.org/2000/svg">
<path fill-rule="evenodd" clip-rule="evenodd" d="M140.919 41.225C138.896 41.8581 136.739 42.2 134.499 42.2C132.434 42.2 130.439 41.9092 128.554 41.3673L134.809 35.2396L140.919 41.225ZM141.978 40.8627L135.523 34.5398L134.809 33.84L134.095 34.5398L127.474 41.0254C119.295 38.1927 113.45 30.5537 113.45 21.6C113.45 10.2422 122.855 1 134.499 1C146.144 1 155.549 10.2422 155.549 21.6C155.549 30.3875 149.919 37.9087 141.978 40.8627ZM142.763 41.6319C150.846 38.4288 156.549 30.6668 156.549 21.6C156.549 9.67065 146.677 0 134.499 0C122.322 0 112.45 9.67065 112.45 21.6C112.45 30.8322 118.363 38.7116 126.681 41.8026L104.675 63.36H76.6738C76.9988 62.0927 77.1714 60.7661 77.1714 59.4C77.1714 50.453 69.7676 43.2 60.6345 43.2C51.5015 43.2 44.0977 50.453 44.0977 59.4C44.0977 68.347 51.5015 75.6 60.6345 75.6C60.7576 75.6 60.8805 75.5987 61.0029 75.5961V106.143L41.5248 125.224C37.8181 118.403 30.4872 113.76 22.0492 113.76C9.87175 113.76 0 123.431 0 135.36C0 147.289 9.87175 156.96 22.0492 156.96C30.3243 156.96 37.5347 152.494 41.3061 145.889L61.0029 165.184V195.124C60.8805 195.121 60.7576 195.12 60.6345 195.12C51.5015 195.12 44.0977 202.373 44.0977 211.32C44.0977 220.267 51.5015 227.52 60.6345 227.52C69.7676 227.52 77.1714 220.267 77.1714 211.32C77.1714 209.954 76.9988 208.627 76.6738 207.36H104.056L125.718 228.581C117.91 231.906 112.45 239.528 112.45 248.4C112.45 260.329 122.322 270 134.499 270C146.677 270 156.549 260.329 156.549 248.4C156.549 239.691 151.287 232.186 143.709 228.768L165.562 207.36H196.735C196.41 208.627 196.237 209.954 196.237 211.32C196.237 220.267 203.641 227.52 212.774 227.52C221.907 227.52 229.311 220.267 229.311 211.32C229.311 202.373 221.907 195.12 212.774 195.12C211.113 195.12 209.51 195.36 207.997 195.806V165.789L227.919 146.274C231.747 152.667 238.837 156.96 246.951 156.96C259.128 156.96 269 147.289 269 135.36C269 123.431 259.128 113.76 246.951 113.76C238.675 113.76 231.464 118.226 227.693 124.832L207.997 105.538V74.9139C209.51 75.3602 211.113 75.6 212.774 75.6C221.907 75.6 229.311 68.347 229.311 59.4C229.311 50.453 221.907 43.2 212.774 43.2C203.641 43.2 196.237 50.453 196.237 59.4C196.237 60.7661 196.41 62.0927 196.735 63.36H164.943L142.763 41.6319ZM76.3819 206.36H103.035L62.0029 166.164V195.175C68.7663 195.717 74.3772 200.247 76.3819 206.36ZM62.0029 196.178C68.2168 196.708 73.3671 200.812 75.3247 206.36H62.0029V196.178ZM61.0029 196.124V206.36V207.36H62.0029H75.6384C75.986 208.623 76.1714 209.951 76.1714 211.32C76.1714 219.695 69.2348 226.52 60.6345 226.52C52.0342 226.52 45.0977 219.695 45.0977 211.32C45.0977 202.945 52.0342 196.12 60.6345 196.12C60.7577 196.12 60.8805 196.121 61.0029 196.124ZM197.237 211.32C197.237 209.951 197.423 208.623 197.77 207.36H206.997H207.997V206.36V196.851C209.501 196.377 211.107 196.12 212.774 196.12C221.374 196.12 228.311 202.945 228.311 211.32C228.311 219.695 221.374 226.52 212.774 226.52C204.174 226.52 197.237 219.695 197.237 211.32ZM206.997 206.36V197.205C202.826 198.84 199.554 202.192 198.084 206.36H206.997ZM197.027 206.36C198.575 201.638 202.276 197.86 206.997 196.136V166.769L166.583 206.36H197.027ZM197.027 64.36H165.964L206.997 104.558V74.5841C202.276 72.8596 198.575 69.0822 197.027 64.36ZM206.997 73.5153C202.826 71.8803 199.554 68.5276 198.084 64.36H206.997V73.5153ZM207.997 73.8687V64.36V63.36H206.997H197.77C197.423 62.0968 197.237 60.7691 197.237 59.4C197.237 51.0246 204.174 44.2 212.774 44.2C221.374 44.2 228.311 51.0246 228.311 59.4C228.311 67.7754 221.374 74.6 212.774 74.6C211.107 74.6 209.501 74.3434 207.997 73.8687ZM76.1714 59.4C76.1714 60.7691 75.986 62.0968 75.6384 63.36H62.0029H61.0029V64.36V74.5958C60.8805 74.5986 60.7577 74.6 60.6345 74.6C52.0342 74.6 45.0977 67.7754 45.0977 59.4C45.0977 51.0246 52.0342 44.2 60.6345 44.2C69.2348 44.2 76.1714 51.0246 76.1714 59.4ZM62.0029 64.36V74.542C68.2168 74.0122 73.3672 69.9082 75.3247 64.36H62.0029ZM76.3819 64.36C74.3772 70.473 68.7663 75.0026 62.0029 75.5453V105.163L103.654 64.36H76.3819ZM41.7999 144.973L61.0029 163.785V107.542L42.0021 126.156C43.3466 128.948 44.0983 132.068 44.0983 135.36C44.0983 138.814 43.271 142.078 41.7999 144.973ZM41.2451 126.897C42.4359 129.48 43.0983 132.346 43.0983 135.36C43.0983 138.536 42.3628 141.547 41.0485 144.237L32.2969 135.663L41.2451 126.897ZM40.7799 125.954L31.5825 134.964L30.8682 135.663L31.5825 136.363L40.5657 145.163C37.0069 151.588 30.0579 155.96 22.0492 155.96C10.4045 155.96 1 146.718 1 135.36C1 124.002 10.4045 114.76 22.0492 114.76C30.2217 114.76 37.2909 119.312 40.7799 125.954ZM142.71 228.347L164.133 207.36H105.484L126.735 228.177C129.15 227.287 131.766 226.8 134.499 226.8C137.401 226.8 140.172 227.349 142.71 228.347ZM127.529 228.956C129.71 228.207 132.055 227.8 134.499 227.8C137.114 227.8 139.616 228.266 141.924 229.117L134.809 236.087L127.529 228.956ZM126.494 229.341L134.095 236.787L134.809 237.487L135.523 236.787L142.939 229.522C150.369 232.708 155.549 239.972 155.549 248.4C155.549 259.758 146.144 269 134.499 269C122.855 269 113.45 259.758 113.45 248.4C113.45 239.808 118.832 232.427 126.494 229.341ZM246.951 155.96C239.105 155.96 232.276 151.764 228.655 145.552L238.035 136.363L238.75 135.663L238.035 134.964L228.434 125.557C231.992 119.132 238.942 114.76 246.951 114.76C258.595 114.76 268 124.002 268 135.36C268 146.718 258.595 155.96 246.951 155.96ZM237.321 135.663L227.951 126.484C226.637 129.173 225.901 132.184 225.901 135.36C225.901 138.697 226.713 141.851 228.155 144.642L237.321 135.663ZM224.901 135.36C224.901 131.907 225.729 128.643 227.199 125.748L207.997 106.937V164.39L227.409 145.374C225.807 142.38 224.901 138.974 224.901 135.36ZM141.724 42.0138C139.461 42.7824 137.03 43.2 134.499 43.2C132.141 43.2 129.869 42.8373 127.739 42.1657L106.104 63.36H163.514L141.724 42.0138ZM105.083 64.36L62.0029 106.562V164.764L104.464 206.36H165.154L206.997 165.369V105.957L164.535 64.36H105.083ZM134.499 155.96C146.144 155.96 155.549 146.718 155.549 135.36C155.549 124.002 146.144 114.76 134.499 114.76C122.855 114.76 113.45 124.002 113.45 135.36C113.45 146.718 122.855 155.96 134.499 155.96ZM134.499 156.96C146.677 156.96 156.549 147.289 156.549 135.36C156.549 123.431 146.677 113.76 134.499 113.76C122.322 113.76 112.45 123.431 112.45 135.36C112.45 147.289 122.322 156.96 134.499 156.96Z" fill="#0C51D6" fill-opacity="0.5"/>
</svg>
