<?xml version="1.0" encoding="UTF-8"?>
<svg fill="none" viewBox="0 0 402 414" xmlns="http://www.w3.org/2000/svg">
<path d="m211.55 63.447c-3.304 1.1616-6.855 1.7931-10.552 1.7931-3.44 0-6.754-0.5468-9.86-1.5586l10.323-10.376 10.089 10.141zm1.03-0.3825-10.414-10.467-0.705-0.709-0.705 0.709-10.668 10.722c-12.271-4.4815-21.041-16.308-21.041-30.199 0-17.744 14.31-32.12 31.951-32.12s31.951 14.376 31.951 32.12c0 13.636-8.45 25.282-20.369 29.944zm0.767 0.7711c12.08-4.9114 20.602-16.813 20.602-30.716 0-18.292-14.753-33.12-32.951-33.12s-32.951 14.828-32.951 33.12c0 14.156 8.836 26.238 21.267 30.977l-32.886 33.055h-41.846c0.486-1.9432 0.744-3.9773 0.744-6.072 0-13.719-11.065-24.84-24.713-24.84-13.649 0-24.713 11.121-24.713 24.84 0 13.719 11.064 24.84 24.713 24.84 0.1835 0 0.3666-2e-3 0.5491-6e-3v46.839l-29.108 29.258c-5.5392-10.459-16.495-17.579-29.105-17.579-18.198 0-32.951 14.828-32.951 33.12s14.753 33.12 32.951 33.12c12.367 0 23.142-6.848 28.778-16.977l29.435 29.586v45.909c-0.1825-4e-3 -0.3656-6e-3 -0.5491-6e-3 -13.649 0-24.713 11.121-24.713 24.84s11.064 24.84 24.713 24.84c13.648 0 24.713-11.121 24.713-24.84 0-2.095-0.258-4.129-0.744-6.072h40.92l32.373 32.539c-11.668 5.097-19.828 16.785-19.828 30.389 0 18.292 14.753 33.12 32.951 33.12s32.951-14.828 32.951-33.12c0-13.354-7.863-24.862-19.188-30.102l32.658-32.826h46.585c-0.486 1.943-0.744 3.977-0.744 6.072 0 13.719 11.065 24.84 24.713 24.84 13.649 0 24.714-11.121 24.714-24.84s-11.065-24.84-24.714-24.84c-2.482 0-4.879 0.368-7.139 1.052v-46.024l29.772-29.925c5.722 9.803 16.317 16.385 28.441 16.385 18.198 0 32.951-14.828 32.951-33.12s-14.753-33.12-32.951-33.12c-12.367 0-23.142 6.848-28.778 16.977l-29.435-29.586v-46.955c2.26 0.684 4.657 1.052 7.139 1.052 13.649 0 24.714-11.121 24.714-24.84 0-13.719-11.065-24.84-24.714-24.84-13.648 0-24.713 11.121-24.713 24.84 0 2.0947 0.258 4.1288 0.744 6.072h-47.51l-33.147-33.316zm-99.037 253.12h40.197l-62.345-62.666v44.946c10.52 0.654 19.259 7.924 22.148 17.72zm-22.148-16.718c9.9621 0.646 18.252 7.477 21.103 16.718h-21.103v-16.718zm-1-0.044v17.762h22.388c0.506 1.938 0.776 3.973 0.776 6.072 0 13.171-10.622 23.84-23.713 23.84-13.092 0-23.713-10.669-23.713-23.84s10.622-23.84 23.713-23.84c0.1835 0 0.3666 2e-3 0.5491 6e-3zm203.1 23.834c0-2.099 0.27-4.134 0.776-6.072h15.798v-16.668c2.253-0.715 4.652-1.1 7.139-1.1 13.092 0 23.714 10.669 23.714 23.84s-10.622 23.84-23.714 23.84c-13.091 0-23.713-10.669-23.713-23.84zm15.574-7.072v-15.326c-6.912 2.539-12.321 8.22-14.513 15.326h14.513zm-15.558 0c2.259-7.659 8.093-13.773 15.558-16.389v-45.346l-61.42 61.735h45.862zm0-218.8h-46.788l62.346 62.666v-46.277c-7.465-2.616-13.299-8.73-15.558-16.389zm15.558 15.326c-6.912-2.539-12.321-8.22-14.513-15.326h14.513v15.326zm1 0.342v-16.668h-15.798c-0.506-1.9385-0.776-3.9735-0.776-6.072 0-13.171 10.622-23.84 23.713-23.84 13.092 0 23.714 10.669 23.714 23.84 0 13.171-10.622 23.84-23.714 23.84-2.487 0-4.886-0.385-7.139-1.1zm-196.51-22.74c0 2.0985-0.27 4.1335-0.776 6.072h-22.388v17.762c-0.1825 4e-3 -0.3656 6e-3 -0.5491 6e-3 -13.092 0-23.713-10.669-23.713-23.84 0-13.171 10.622-23.84 23.713-23.84 13.091 0 23.713 10.669 23.713 23.84zm-22.164 7.072v16.718c9.9621-0.646 18.252-7.477 21.103-16.718h-21.103zm22.148 0c-2.889 9.796-11.628 17.066-22.148 17.72v45.876l63.271-63.596h-41.123zm-52.089 124.62 28.941 29.089v-87.692l-28.63 28.777c2.1566 4.406 3.3679 9.363 3.3679 14.604 0 5.488-1.328 10.664-3.6786 15.222zm-0.4369-29.074c1.997 4.194 3.1155 8.891 3.1155 13.852 0 5.208-1.2328 10.126-3.4208 14.476l-13.939-14.011 14.244-14.317zm-0.4697-0.946-14.48 14.554-0.7053 0.709 0.7053 0.709 14.158 14.231c-5.4265 9.962-15.952 16.715-28.044 16.715-17.641 0-31.951-14.376-31.951-32.12s14.31-32.12 31.951-32.12c12.335 0 23.041 7.028 28.366 17.322zm152.47 157.59 32.228-32.393h-89.096l31.959 32.123c3.753-1.494 7.844-2.315 12.126-2.315 4.533 0 8.853 0.92 12.783 2.585zm-24.14 0.503c3.529-1.349 7.358-2.088 11.357-2.088 4.252 0 8.31 0.835 12.021 2.351l-11.558 11.618-11.82-11.881zm-1.007 0.406 12.122 12.183 0.705 0.709 0.705-0.709 11.842-11.902c11.16 5.008 18.941 16.261 18.941 29.345 0 17.744-14.31 32.12-31.951 32.12s-31.951-14.376-31.951-32.12c0-13.335 8.082-24.768 19.587-29.626zm180.41-111.58c-11.848 0-22.194-6.485-27.711-16.119l14.751-14.827 0.705-0.709-0.705-0.709-15.083-15.161c5.426-9.962 15.952-16.715 28.043-16.715 17.641 0 31.951 14.376 31.951 32.12s-14.31 32.12-31.951 32.12zm-13.665-31.655-14.865-14.941c-2.188 4.35-3.421 9.268-3.421 14.476 0 5.454 1.352 10.59 3.738 15.088l14.548-14.623zm-19.286-0.465c0-5.488 1.328-10.664 3.679-15.222l-28.941-29.089v89.553l29.262-29.413c-2.55-4.703-4-10.096-4-15.829zm-123.77-143.32c-3.533 1.3005-7.35 2.0102-11.331 2.0102-3.726 0-7.307-0.6216-10.647-1.7671l-32.512 32.679h87.244l-32.754-32.922zm-55.485 33.922-64.682 65.014v89.703l63.756 64.083h91.086l62.83-63.153v-91.563l-63.756-64.084h-89.234zm44.154 141.52c17.641 0 31.951-14.376 31.951-32.12s-14.31-32.12-31.951-32.12-31.951 14.376-31.951 32.12 14.31 32.12 31.951 32.12zm0 1c18.198 0 32.951-14.828 32.951-33.12s-14.753-33.12-32.951-33.12-32.951 14.828-32.951 33.12 14.753 33.12 32.951 33.12z" clip-rule="evenodd" fill="#0C51D6" fill-rule="evenodd"/>
</svg>
